<svg width="96" height="96" viewBox="0 0 96 96" fill="none" xmlns="http://www.w3.org/2000/svg">
<path d="M49.0546 12.0547C48.1953 12.0703 47.3593 12.1172 46.5546 12.1953C43.3124 12.4844 40.4765 13.2109 38.3203 14.3594C36.164 15.5 34.4999 17.25 34.4999 19.5C34.4999 19.8125 34.7734 20.0078 34.8437 20.2969C33.2734 21.0312 31.7968 21.8437 30.5624 22.8281C30.1796 23.1328 29.9687 23.6094 29.9999 24.1016C30.039 24.5937 30.3046 25.0312 30.7265 25.2891C36.8359 28.9531 40.2421 32.9766 41.3515 34.3359C28.4531 43.6562 20.3749 56.0781 20.5937 66.9375C20.7031 72.5625 23.1718 77.75 28.2109 81.3437C33.2578 84.9375 40.7421 87 50.9999 87C51.8281 87 52.4999 86.3281 52.4999 85.5V77.0859C54.5859 76.8672 56.6562 76.2109 58.2421 74.7266C59.9531 73.1328 60.9843 70.6719 60.9296 67.5391C60.8671 64.5 59.4453 62.2109 57.5468 60.7031C56.0312 59.5078 54.2656 58.75 52.4999 58.0859V45C52.4999 44.1719 51.8281 43.5 50.9999 43.5C49.2656 43.5 46.8515 43.8594 44.6562 45.0547C42.4687 46.25 40.4999 48.5234 40.4999 51.7656C40.4999 54.4219 41.9999 56.4141 43.8671 57.6484C45.5546 58.7578 47.5546 59.4062 49.4999 60.1016V73.8359C48.4843 73.7031 47.4374 73.7187 46.5468 73.3828C44.9531 72.7812 43.7187 71.875 43.2499 71.1641C42.9531 70.7109 42.4374 70.4531 41.8984 70.4844C41.3593 70.5156 40.8749 70.8359 40.6406 71.3203C40.3984 71.8125 40.4453 72.3828 40.7499 72.8359C41.7812 74.375 43.4999 75.4453 45.4921 76.1875C46.7109 76.6484 48.1328 76.6484 49.4999 76.7969V83.9219C40.4999 83.7187 34.0546 81.8203 29.9531 78.8984C25.6249 75.8125 23.6874 71.6953 23.5937 66.875C23.3984 57.2344 31.2109 44.7422 44.3437 35.7344C44.6874 35.5078 44.914 35.1484 44.9765 34.7422C45.0468 34.3437 44.9453 33.9297 44.7031 33.6016C44.7031 33.6016 40.7968 28.6016 34.3828 24.1953C35.0624 23.7969 35.8124 23.4453 36.5937 23.1016C37.2265 23.6094 37.8515 24.125 38.6484 24.4922C40.8515 25.5156 43.5937 26.1328 46.3359 26.4297C49.0859 26.7266 51.8203 26.6875 54.0156 26.2422C55.1171 26.0234 56.0937 25.7109 56.9218 25.1641C57.7499 24.6172 58.4999 23.6484 58.4999 22.5C58.4999 21.375 58.0234 20.3047 57.289 19.5469C56.5546 18.7891 55.6093 18.2969 54.5546 17.9375C52.4374 17.2266 49.8124 17.0547 46.9609 17.25C43.9218 17.4609 40.664 18.1172 37.6406 19.1641C37.789 18.4844 38.3203 17.75 39.7265 17.0078C41.3671 16.1328 43.8749 15.4531 46.8203 15.1797C52.2499 14.6875 59.1015 15.6719 65.1796 18.6016C61.3359 23.4844 60.0312 29.7109 60.0312 29.7109C59.8984 30.3672 60.2265 31.0312 60.8281 31.3359C61.4296 31.6406 62.1562 31.5078 62.6093 31.0078C66.2343 27.0234 69.1562 25.3594 70.9765 24.9766C72.789 24.5859 73.3593 25.125 73.664 25.875C74.2812 27.3906 72.9296 31.5 65.9999 31.5C65.2031 31.5078 64.5546 32.1328 64.5156 32.9219C64.4765 33.7187 65.0624 34.4062 65.8515 34.4922C70.5703 34.9609 73.6015 36.375 75.164 37.75C75.9453 38.4375 76.3515 39.1094 76.5078 39.6094C76.6562 40.1094 76.6015 40.4062 76.4453 40.6562C76.1406 41.1641 74.9296 41.875 72.2578 41.3047C69.5859 40.7344 65.7109 38.8672 60.9687 34.8516V34.8594C60.9453 34.8437 60.9374 34.8281 60.9218 34.8203C60.2734 34.3203 59.3515 34.4297 58.8437 35.0625C58.3281 35.6953 58.414 36.6172 59.0312 37.1484C59.0468 37.1641 59.0624 37.1641 59.0859 37.1797H59.0781C72.3124 47.4766 78.4921 59.5312 78.2031 68.5781C78.0624 73.1016 76.3906 76.8515 73.1796 79.5703C69.9687 82.289 65.1249 84 58.4999 84C57.9609 83.9922 57.4531 84.2734 57.1796 84.7422C56.914 85.2109 56.914 85.789 57.1796 86.2578C57.4531 86.7265 57.9609 87.0078 58.4999 87C65.6406 87 71.2499 85.1484 75.1171 81.8672C78.9921 78.5859 81.039 73.8984 81.2031 68.6719C81.4453 61.0078 77.7499 52.1484 70.3828 43.75C70.7734 43.8672 71.2656 44.1562 71.6328 44.2422C75.0078 44.9609 77.789 44.2578 79.0234 42.1953C79.6328 41.1719 79.7343 39.8984 79.3749 38.7266C79.0156 37.5625 78.2499 36.4766 77.1484 35.5C75.9687 34.4687 74.3359 33.5859 72.3515 32.875C75.9687 30.9219 77.5781 27.5391 76.4453 24.75C75.6093 22.6875 73.1484 21.4453 70.3515 22.0391C68.6953 22.3906 66.8203 23.4766 64.8124 25.0078C65.7031 22.9609 66.8671 20.75 68.5624 19.0625C68.8906 18.7266 69.0546 18.2578 68.9843 17.7891C68.9218 17.3281 68.6406 16.9141 68.2265 16.6875C62.9218 13.7422 57.0312 12.3516 51.6796 12.0937C50.789 12.0469 49.914 12.0391 49.0546 12.0547ZM49.0468 20.1797C50.8671 20.1875 52.4687 20.3984 53.5859 20.7812C54.3359 21.0312 54.8593 21.3594 55.1328 21.6406C55.414 21.9297 55.4999 22.125 55.4999 22.5C55.4999 22.4766 55.5937 22.4453 55.2734 22.6562C54.9531 22.8672 54.289 23.125 53.4218 23.3047C51.6796 23.6562 49.164 23.7109 46.664 23.4453C44.1562 23.1797 41.6484 22.5781 39.914 21.7734C39.8671 21.75 39.8515 21.7265 39.8046 21.7031C42.2343 20.9687 44.7968 20.4062 47.164 20.25C47.8124 20.2031 48.4453 20.1797 49.0468 20.1797ZM49.4999 46.8672V56.8437C48.039 56.2969 46.4843 55.7812 45.5156 55.1406C44.1562 54.2422 43.4999 53.4219 43.4999 51.7656C43.4999 49.6484 44.5312 48.5391 46.0937 47.6875C47.1718 47.1016 48.3593 47.0156 49.4999 46.8672ZM52.4999 61.5156C53.6171 62.0078 54.8906 62.4297 55.6874 63.0547C57.0703 64.1484 57.8828 65.3828 57.9296 67.5937C57.9765 70.0781 57.2578 71.5469 56.1953 72.5391C55.2734 73.3906 53.9609 73.8516 52.4999 74.0547V61.5156Z" fill="#D03900"/>
</svg>
