<svg width="96" height="96" viewBox="0 0 96 96" fill="none" xmlns="http://www.w3.org/2000/svg">
<path d="M44.8047 14.9608C38.9922 15.1561 33.0938 18.0155 29.1016 23.7421C28.9219 23.9921 28.9063 24.3749 28.7579 24.6561C28.4219 24.5311 28.1485 24.2889 27.8047 24.1874C27.8047 24.1874 27.8047 24.1874 27.7969 24.1874C20.8126 22.0311 14.9766 22.6327 10.6094 25.0468C6.23443 27.4686 3.41412 31.6327 2.20318 36.2733C-0.226509 45.5468 3.64849 56.9999 14.2501 61.3905C30.3672 68.0624 38.2188 78.453 38.2188 78.4608C38.5391 78.8983 39.0704 79.1327 39.6094 79.0702C40.1485 79.0077 40.6172 78.6561 40.8204 78.1561C41.0313 77.6561 40.9532 77.078 40.6094 76.6483C40.6094 76.6483 32.2266 65.578 15.3985 58.6171C6.26568 54.8358 3.02349 44.9686 5.10161 37.0311C6.14068 33.0624 8.48443 29.6483 12.0626 27.6718C15.6329 25.6952 20.5235 25.078 26.9219 27.0468C26.9297 27.0546 26.9376 27.0546 26.9454 27.0546C27.2188 27.1327 27.461 27.3436 27.7266 27.453C27.4297 29.1014 27.3751 30.8436 27.6407 32.5155C27.8829 34.0389 28.3594 35.4921 29.4063 36.5702C30.461 37.6561 32.2891 38.0624 33.9454 37.3905C33.9766 37.3827 34.0079 37.3671 34.0313 37.3514C35.5704 36.6171 36.5938 35.2655 36.7579 33.8124C36.9219 32.3593 36.3907 30.9843 35.5704 29.7499C34.5938 28.2655 33.086 27.0077 31.3985 25.953C31.4532 25.8358 31.4844 25.5624 31.5469 25.4764C31.5469 25.4686 31.5547 25.4686 31.5547 25.4608C36.8516 17.8671 45.6797 16.2811 52.2501 19.5155C54.1563 20.453 55.7891 21.9061 57.1954 23.6483C56.8907 23.6952 56.5782 23.6093 56.2813 23.6796C49.5079 25.3358 43.8751 32.1171 44.4297 40.8046C45.2891 54.1639 47.8047 48.8827 42.6485 70.7968L42.6563 70.8046C42.6563 70.8202 42.6407 70.8358 42.6329 70.8515C42.461 71.6561 42.9766 72.4608 43.7813 72.6327C44.5938 72.8124 45.3907 72.2968 45.5704 71.4843C45.5704 71.4686 45.5704 71.4608 45.5782 71.4374C46.1641 68.5624 49.586 63.6249 53.2813 58.703C56.9688 53.7811 60.8829 48.8202 62.336 44.4686C62.336 44.453 62.3438 44.4452 62.3438 44.4296C64.4219 37.5702 64.1954 31.6952 62.5079 27.0311C63.3126 27.3046 64.1251 27.4764 64.8829 27.9843C67.3672 29.6639 69.6251 32.7343 71.0001 37.7343C71.0001 37.7343 71.0001 37.7343 71.0079 37.7343C71.0626 37.953 71.0391 38.2186 71.086 38.4452C68.9454 39.5858 67.1407 40.9452 66.1641 42.5624C65.4766 43.7108 65.086 44.9608 65.2735 46.2264C65.4532 47.4921 66.3126 48.6639 67.5469 49.3046C67.5704 49.3124 67.586 49.3202 67.6016 49.328C68.9766 49.9608 70.5782 49.7811 71.6485 48.9843C72.711 48.1874 73.336 47.0077 73.7657 45.703C74.3126 44.0311 74.4063 42.1093 74.2969 40.1796C74.4766 40.1093 74.586 39.9999 74.7735 39.9374C74.7969 39.9296 74.8282 39.9218 74.8516 39.9139C83.4297 36.6874 89.2032 39.9843 91.4454 45.0702C93.6876 50.1483 92.3282 57.2577 84.9063 62.1561C78.836 66.1561 73.4141 66.203 67.3204 66.6093C61.2266 67.0233 54.5235 67.8671 47.1094 73.6874C46.4532 74.203 46.336 75.1483 46.8516 75.7968C47.3594 76.453 48.3047 76.5624 48.961 76.0546C55.8126 70.6718 61.5391 70.0077 67.5235 69.6093C73.5079 69.203 79.8047 69.1171 86.5547 64.6561C94.9766 59.1014 97.0469 50.3202 94.1876 43.8514C91.3438 37.4139 83.5391 33.5155 73.9141 37.078C73.8985 37.0389 73.9063 36.9843 73.8985 36.9452V36.9374C72.3829 31.4296 69.7501 27.6561 66.5626 25.4999C64.6563 24.2108 62.5704 23.6874 60.4688 23.5155C58.6563 20.6483 56.4219 18.2186 53.5782 16.8202C51.6016 15.8514 49.4688 15.2577 47.2813 15.0389C46.461 14.9608 45.6329 14.9374 44.8047 14.9608ZM57.961 26.5077C58.2813 26.5155 58.6094 26.5311 58.9297 26.5155C61.0001 30.6874 61.6797 36.2343 59.4844 43.5311C58.3438 46.9218 54.5782 51.9686 50.8751 56.8983C49.7501 58.4061 48.7579 59.8514 47.711 61.3124C49.6251 50.9452 48.0782 50.8749 47.4219 40.6093C46.9532 33.3124 51.6876 27.8905 56.9922 26.6014C57.3126 26.5233 57.6329 26.5077 57.961 26.5077ZM30.6563 29.0077C31.6563 29.7499 32.5313 30.5936 33.0704 31.3983C33.6329 32.2577 33.8282 33.0233 33.7813 33.4764C33.7266 33.9061 33.5469 34.2108 32.7735 34.6014C32.0313 34.8905 31.8907 34.8202 31.5547 34.4764C31.211 34.1249 30.7891 33.203 30.6094 32.0389C30.4532 31.1093 30.5469 30.0311 30.6563 29.0077ZM73.8751 37.078C73.8594 37.0858 73.8516 37.0936 73.836 37.0936C73.8204 37.1014 73.8126 37.1014 73.7891 37.1014L73.8751 37.078ZM71.3829 41.6249C71.336 42.7655 71.2032 43.8905 70.9141 44.7655C70.6016 45.7108 70.1563 46.3514 69.8438 46.5858C69.5469 46.8046 69.4376 46.8514 68.8985 46.6014C68.4063 46.3436 68.2891 46.1405 68.2422 45.8046C68.1876 45.453 68.2969 44.8436 68.7344 44.1093C69.2266 43.3046 70.1797 42.4296 71.3829 41.6249Z" fill="#D03900"/>
</svg>
