<svg width="96" height="96" viewBox="0 0 96 96" fill="none" xmlns="http://www.w3.org/2000/svg">
<path d="M46.5156 15.0001C39.2969 15.0235 32.1016 15.7579 26.5625 17.2501C23.7969 18.0001 21.4375 18.9298 19.6562 20.1563C17.875 21.3829 16.5625 23.0704 16.5547 25.1173C16.5547 34.3829 19.6797 45.0079 23.9453 53.5626C24.0625 53.8126 23.9453 54.0782 23.6641 54.1641C19.3906 55.4298 15.8594 57.0313 13.2812 58.961C10.7109 60.8829 9 63.2735 9 66.0001C9 68.4298 10.375 70.6095 12.4766 72.3985C14.5781 74.1876 17.4688 75.6954 20.9766 76.961C27.9922 79.4845 37.5 81.0001 48 81.0001C58.5 81.0001 68.0078 79.4845 75.0234 76.961C78.5312 75.6954 81.4219 74.1876 83.5234 72.3985C85.625 70.6095 87 68.4298 87 66.0001C87 63.5704 85.625 61.3907 83.5234 59.6016C81.4219 57.8126 78.5312 56.3048 75.0234 55.0391C73.6562 54.547 71.8047 54.297 70.2578 53.8829C70.7422 52.672 71.25 51.5079 71.6797 50.0782C73.6875 51.7579 76.1563 52.8907 78.8516 52.4141C82.3984 51.7813 85.6016 48.6016 86.6953 42.672C87.8672 36.3204 85.3594 31.8907 81.6641 30.672C77.9609 29.4532 73.5703 31.586 71.7656 36.3204C70.9375 38.4845 70.9297 40.7735 71.625 42.6798C72.3203 44.586 73.8984 46.2266 76.0547 46.3907C76.5937 46.4376 77.1172 46.1954 77.4297 45.7501C77.7344 45.3048 77.7813 44.7266 77.5391 44.2345C77.3047 43.7501 76.8203 43.4298 76.2734 43.3985C75.4766 43.336 74.8594 42.7891 74.4453 41.6485C74.0234 40.5079 74 38.8829 74.5703 37.3829C75.9297 33.8204 78.6406 32.836 80.7188 33.5157C82.8047 34.2032 84.7422 36.6954 83.7422 42.1329C82.7969 47.2813 80.5469 49.0704 78.3281 49.461C76.1016 49.8595 73.5469 48.6563 72.2188 46.7813C71.8828 46.3126 71.3047 46.0704 70.7266 46.172C70.1563 46.2813 69.6953 46.7032 69.5469 47.2657C68.8828 49.7735 68.1016 51.3595 67.3516 53.1798C61.5703 51.9141 55.2031 51.0001 48 51.0001C42.4766 51.0001 37.8281 51.7579 34.4219 53.0782C32.7187 53.7345 31.3125 54.5391 30.2656 55.5391C29.2109 56.5391 28.5 57.836 28.5 59.2501C28.5 60.6641 29.2109 61.961 30.2656 62.961C31.3125 63.961 32.7187 64.7657 34.4219 65.422C37.8281 66.7423 42.4766 67.5001 48 67.5001H48.0078C54.5234 67.4532 59.5859 66.8516 63.6094 63.9688C65.8828 62.3438 67.6484 59.8282 69.2031 56.7032C70.7734 57.1095 72.6563 57.3751 74.0078 57.8673C77.2891 59.047 79.8906 60.4454 81.5781 61.8829C83.2734 63.3282 84 64.6954 84 66.0001C84 67.3048 83.2734 68.672 81.5781 70.1173C79.8906 71.5548 77.2891 72.9532 74.0078 74.1329C67.4531 76.5001 58.2109 78.0001 48 78.0001C37.7891 78.0001 28.5469 76.5001 21.9922 74.1329C18.7109 72.9532 16.1094 71.5548 14.4219 70.1173C12.7266 68.672 12 67.3048 12 66.0001C12 64.5391 12.9375 62.9688 15.0859 61.3595C17.2266 59.7501 20.4844 58.2423 24.5156 57.0391C26.5234 56.4376 27.5703 54.1173 26.625 52.2266C22.5469 44.0391 19.5625 33.7032 19.5547 25.1173C19.5547 24.3282 20.0234 23.5391 21.3516 22.6251C22.6875 21.711 24.7734 20.8438 27.3438 20.1485C32.4844 18.7657 39.5078 18.0235 46.5234 18.0001C53.5391 17.9766 60.5703 18.6798 65.7109 20.0548C68.2734 20.7423 70.3672 21.6095 71.6953 22.5391C73.0234 23.461 73.5 24.2735 73.5 25.1173C73.5 25.4845 73.2813 25.9766 72.4141 26.6407C71.5547 27.3126 70.1406 28.0157 68.3672 28.6329C64.8125 29.8595 59.8281 30.7657 54.5781 31.1876C49.3281 31.6095 43.8047 31.5548 39.1484 30.9298C34.4922 30.3126 30.7109 29.0157 29.0625 27.5157C28.7188 27.211 28.6328 27.0079 28.625 26.961C28.6094 26.9063 28.5859 26.961 28.6641 26.836C28.8047 26.586 29.6562 25.8829 31.1562 25.3204C34.1562 24.1954 39.4688 23.4141 45.8438 23.5548C50.1172 23.6563 53.9687 23.9141 56.6484 24.3751C57.6641 24.547 58.3047 24.7579 58.9141 24.9688C58.0938 25.1798 57.0781 25.3985 55.6328 25.5313C52.2031 25.8438 47.3516 25.8438 42.0938 25.5001C41.5469 25.4454 41.0078 25.6876 40.6953 26.1407C40.3828 26.6016 40.3516 27.1876 40.6016 27.6798C40.8516 28.172 41.3516 28.4845 41.9062 28.4923C47.2734 28.836 52.2187 28.8516 55.8984 28.5157C57.7422 28.3516 59.2578 28.1095 60.4453 27.711C61.0469 27.5157 61.5703 27.297 62.0547 26.9063C62.5391 26.5235 63.0312 25.8126 63 25.0001C62.9766 24.3204 62.6172 23.7032 62.2188 23.3048C61.8125 22.9063 61.3594 22.6407 60.8594 22.4141C59.8516 21.9688 58.625 21.6641 57.1484 21.4141C54.1953 20.9141 50.2656 20.6563 45.9141 20.5626C39.2734 20.4141 33.7344 21.1485 30.1016 22.5079C28.2891 23.1876 26.875 23.961 26.0781 25.3204C25.6797 26.0001 25.5078 26.8907 25.7109 27.6954C25.9141 28.5001 26.4063 29.172 27.0391 29.7423C29.6094 32.0782 33.8125 33.2423 38.7578 33.9063C43.6953 34.5626 49.3828 34.6173 54.8203 34.1798C60.25 33.7423 65.4141 32.8282 69.3516 31.461C71.3125 30.7813 72.9766 30.0001 74.25 29.0157C75.5234 28.0313 76.5 26.711 76.5 25.1173C76.5 23.047 75.1953 21.3204 73.4062 20.0704C71.6172 18.8282 69.2578 17.8985 66.4844 17.1563C60.9375 15.672 53.7344 14.9766 46.5156 15.0001ZM48 54.0001C54.8281 54.0001 60.8594 54.8438 66.3047 56.0001C65 58.4923 63.5547 60.3204 61.8672 61.5313C58.6641 63.8204 54.3281 64.4532 48 64.5001C42.7578 64.5001 38.3984 63.7501 35.5 62.6251C34.0547 62.0626 32.9766 61.4063 32.3359 60.7891C31.6953 60.1798 31.5 59.6954 31.5 59.2501C31.5 58.8048 31.6953 58.3204 32.3359 57.711C32.9766 57.0938 34.0547 56.4376 35.5 55.8751C38.3984 54.7501 42.7578 54.0001 48 54.0001Z" fill="#D03900"/>
</svg>
